<?xml version="1.0" encoding="UTF-8"?>
<svg id="Layer_2" data-name="Layer 2" xmlns="http://www.w3.org/2000/svg" viewBox="-1 -2.5 44.5 56" overflow="visible">
  <defs>
    <style>
      .cls-1 {
        fill: none;
      }

      .cls-2 {
        fill: #f5bd9a;
        stroke: rgba(22, 19, 19, 0.92);
        stroke-width: 0.5;
        stroke-linejoin: round;
        stroke-linecap: round;
        paint-order: stroke fill;
      }

      .cls-3 {
        fill: rgba(72, 66, 66, 0.82);
        stroke: rgba(22, 19, 19, 0.92);
        stroke-width: 0.5;
        stroke-linejoin: round;
        stroke-linecap: round;
        paint-order: stroke fill;
      }
    </style>
  </defs>
  <g id="Layer_1-2" data-name="Layer 1">
    <g>
      <g transform="translate(0, -1.15)">
        <path class="cls-3" d="M42.06,3.19c0-.08,0-.16-.03-.24-.05-.44-.19-.85-.41-1.22-.22-.37-.52-.7-.9-.95-1.01-.66-2.36-.51-3.51-.55-.2,0-.41,0-.61-.02-3.09-.1-6.19-.15-9.28-.19-5.52-.05-11.05.02-16.58.19-1.17.04-2.57-.12-3.62.49-.84.49-1.37,1.36-1.45,2.34.45,13,.8,26.05-.1,39.05h-2.17c-1.01-.02-2.18-.12-2.88.76-.76.9-.48,2.22-.34,3.3.23,2.36,1.44,4.39,3.68,5.34,1.18.54,2.46.83,3.76.86,2.93,0,25.05,0,27.05,0,1.87.1,3.85-.02,5.32-1.34,2.37-2.11,2.02-5.57,2.18-8.45.5-13.11.32-26.26-.11-39.37ZM41.3,39.44c-.05,1.41-.1,2.82-.16,4.24-.06,1.23-.03,2.51-.27,3.72-.91,4.98-6.64,4.91-8.85.95-.61-1.21-.72-2.64-.79-3.98-.1-1.71-1.14-2.35-2.89-2.28H6.53c.86-12.64.62-25.33.12-37.99-.04-1.06,0-2.11,1.08-2.64.55-.27,1.18-.21,1.78-.24,6.3-.23,12.6-.3,18.91-.21,3.01.03,6,.1,9.01.2h.16c1.3-.03,2.69,0,3.24,1.07.16.29.25.66.26,1.12v.17c.34,11.95.59,23.91.21,35.86Z"/>
        <path class="cls-1" d="M41.09,3.58v-.17c0-.46-.1-.84-.26-1.12-.55-1.06-1.94-1.1-3.24-1.07h-.16c-3.01-.11-6-.17-9.01-.2-6.3-.09-12.6-.02-18.91.21-.6.03-1.23-.03-1.78.24-1.09.53-1.11,1.59-1.08,2.64.5,12.65.74,25.34-.12,37.99h21.81c1.75-.08,2.8.57,2.89,2.28.07,1.34.17,2.77.79,3.98,2.21,3.96,7.94,4.03,8.85-.95.24-1.21.21-2.49.27-3.72.07-1.41.12-2.82.16-4.24.37-11.95.12-23.91-.21-35.86ZM26.41,8.2c-.25-.2-.55-.31-.89-.31-.38,0-.8.15-1.25.46s-.74.64-.86,1.01c-.06.32-.12.63-.18.95-.11.41-.31.61-.59.61-.13,0-.31-.08-.51-.24-.2-.15-.3-.3-.3-.43,0-.55.25-1.13.77-1.77.46-.58.97-1,1.51-1.26.48-.22.98-.34,1.52-.34.65,0,1.23.23,1.74.7s.77,1.03.77,1.68c0,.98-.5,2.04-1.49,3.15-.34.38-1.22,1.22-2.64,2.5-.14.12-.27.24-.37.35l4.59-.68s.1-.02.15-.02c.21,0,.38.1.52.28.13.18.19.38.19.61,0,.13-.04.26-.13.38s-.2.19-.34.19c-.12,0-.29-.03-.51-.09-.23-.06-.4-.09-.53-.09-1.48,0-2.95.23-4.41.67-.29.09-.48.13-.57.13-.22,0-.41-.07-.58-.21-.16-.13-.25-.31-.25-.54s.12-.47.36-.71c.09-.1.29-.27.62-.54.96-.75,1.81-1.59,2.56-2.51.97-1.21,1.45-2.25,1.45-3.12,0-.35-.12-.62-.37-.84ZM18.64,9.28c0-.39.09-.87.3-1.44.25-.68.53-1.03.84-1.03.18,0,.36.1.54.29s.28.37.28.56c0,.11-.06.41-.17.94-.28,1.32-.41,2.34-.41,3.07v2.75c0,.73.04,1.14.11,1.24.16.23.24.37.24.43,0,.12-.06.24-.16.35-.11.1-.22.14-.36.14-.19,0-.46-.08-.8-.24-.12-.24-.17-.46-.17-.64v-5.8l-.22-.16v-.45ZM17.6,20.32h12.53c.59,0,.59.89,0,.9h-12.53c-.59-.02-.59-.89,0-.9ZM19.77,37.76c-.6,0-.6-.9,0-.91.61,0,.61.9,0,.91ZM23.86,37.76c-.61,0-.61-.9,0-.91.61,0,.61.9,0,.91ZM27.95,37.76c-.61,0-.61-.9,0-.91.61,0,.61.9,0,.91ZM35.31,31.51H12.41c-.6,0-.59-.89,0-.89h22.9c.6,0,.59.88,0,.89ZM35.31,26.38H12.41c-.6,0-.59-.89,0-.9h22.9c.6,0,.59.89,0,.9Z"/>
        <path class="cls-2" d="M30.13,21.22h-12.53c-.59-.02-.59-.89,0-.9h12.53c.59,0,.59.89,0,.9Z"/>
        <path class="cls-2" d="M35.31,26.38H12.41c-.6,0-.59-.89,0-.9h22.9c.6,0,.59.89,0,.9Z"/>
        <path class="cls-2" d="M35.31,31.51H12.41c-.6,0-.59-.89,0-.89h22.9c.6,0,.59.88,0,.89Z"/>
        <path class="cls-2" d="M19.77,37.76c-.6,0-.6-.9,0-.91.61,0,.61.9,0,.91Z"/>
        <path class="cls-2" d="M23.86,37.76c-.61,0-.61-.9,0-.91.61,0,.61.9,0,.91Z"/>
        <path class="cls-2" d="M27.95,37.76c-.61,0-.61-.9,0-.91.61,0,.61.9,0,.91Z"/>
      </g>
      <g transform="translate(0, -0.85)">
        <path class="cls-2" d="M20.41,8.59c.12-.53.17-.84.17-.94,0-.18-.1-.37-.28-.56s-.36-.29-.54-.29c-.31,0-.59.35-.84,1.03-.21.57-.31,1.05-.3,1.44v.45l.22.16v5.8c0,.18.06.4.17.64.34.16.61.24.8.24.13,0,.25-.05.36-.14.11-.11.16-.22.16-.35,0-.06-.08-.2-.24-.43-.07-.1-.11-.51-.11-1.24v-2.75c0-.73.13-1.76.41-3.07Z"/>
        <path class="cls-2" d="M28.91,14.85c-.13-.18-.31-.28-.52-.28-.06,0-.11,0-.15.02l-4.59.68c.1-.11.22-.23.37-.35,1.42-1.28,2.31-2.11,2.64-2.5.99-1.11,1.49-2.17,1.49-3.15,0-.65-.26-1.21-.77-1.68s-1.09-.7-1.74-.7c-.54,0-1.04.12-1.52.34-.54.26-1.05.68-1.51,1.26-.52.63-.77,1.22-.77,1.77,0,.13.1.28.3.43.2.16.37.24.51.24.28,0,.48-.2.59-.61.06-.32.13-.63.18-.95.12-.37.4-.7.86-1.01s.86-.46,1.25-.46c.35,0,.64.11.89.31.25.21.37.49.37.84,0,.87-.48,1.91-1.45,3.12-.75.92-1.59,1.76-2.56,2.51-.34.27-.54.44-.62.54-.24.24-.36.48-.36.71s.09.4.25.54c.16.14.36.21.58.21.09,0,.28-.05.57-.13,1.46-.44,2.93-.67,4.41-.67.12,0,.3.03.53.09.22.06.39.09.51.09.13,0,.24-.07.34-.19s.13-.25.13-.38c0-.22-.06-.42-.19-.61Z"/>
      </g>
    </g>
  </g>
</svg>