<?xml version="1.0" encoding="UTF-8"?>
<svg id="Layer_2" data-name="Layer 2" xmlns="http://www.w3.org/2000/svg" viewBox="0 0 53.73 66.69">
  <defs>
    <style>
      .cls-1 {
        fill: #f5bd9a;
        stroke: rgba(22, 19, 19, 0.92);
        stroke-width: 0.55;
        stroke-linejoin: round;
        stroke-linecap: round;
        paint-order: stroke fill;
      }

      .cls-2 {
        fill: rgba(118, 112, 112, 0.82);
        stroke: rgba(22, 19, 19, 0.92);
        stroke-width: 0.55;
        stroke-linejoin: round;
        stroke-linecap: round;
        paint-order: stroke fill;
      }
    </style>
  </defs>
  <g id="Layer_1-2" data-name="Layer 1">
    <g>
      <g>
        <path class="cls-2" d="M24.89,37.52v4.38l4.39-1.44v-4.38l-4.39,1.44ZM44.86,26.83c-.05,0-.11,0-.16.01l-12.72,4.2s-.05.03-.07.04l-10.21,3.35v32.26l32.03-10.52V23.91l-8.87,2.92ZM30.17,40.78c0,.19-.12.36-.31.42l-5.25,1.73c-.05.02-.1.03-.16.03-.25,0-.45-.2-.45-.44v-5.33c0-.19.12-.36.31-.42l5.25-1.73c.05-.02.11-.03.17-.03.24,0,.44.2.44.45v5.32ZM42.34,48.36c0,.45-.18.92-.47,1.31-.3.39-.7.71-1.15.86-.18.06-.36.09-.53.09-.27,0-.52-.08-.72-.22-.2-.14-.35-.35-.44-.6-.04-.14-.07-.3-.07-.47,0-.12-.02-.23-.05-.32-.05-.16-.15-.29-.27-.38-.13-.09-.29-.13-.47-.13-.12,0-.25.02-.39.06-.36.12-.68.38-.92.7-.24.31-.39.69-.39,1.04v3.09c0,.45-.18.92-.47,1.31-.3.39-.7.71-1.15.85-.18.07-.36.09-.53.09-.27,0-.52-.07-.72-.21s-.35-.35-.44-.6c-.04-.14-.07-.3-.07-.47v-22.76l9.25-3.05v19.81ZM51.48,52.37l-4.08,1.11c-.24.06-.48-.08-.55-.31-.06-.24.08-.49.32-.55l4.08-1.11c.24-.06.48.08.55.31.06.24-.08.49-.32.55ZM51.48,49.19l-8.17,2.22c-.24.07-.48-.07-.54-.31-.07-.24.07-.48.31-.55l8.17-2.22c.24-.06.48.08.55.32.06.23-.08.48-.32.54ZM0,25.26v32.23l20.81,9.13v-32.22L0,25.26ZM13.92,40.3l-1.52-.61v9.24s-.01.05-.02.08c-.04.11-.17.17-.28.12l-3.53-1.4c-.1-.03-.17-.11-.17-.21v-9.42l-1.67-.66-.06-.03c-.1-.08-.12-.22-.04-.32l3.59-4.8s.05-.05.09-.07c.11-.05.24,0,.29.11l3.6,7.67s.03.12.01.17c-.05.12-.18.17-.29.13ZM2.44,24.09l-.52.17s-.01,0-.02,0l-1.11.37,1.51.66c-.15-.07-.29-.15-.43-.23l.57-.98Z"/>
        <path class="cls-2" d="M23.24,18.19l-9.01,2.95,18.2,8.83-11.15,3.66L3.09,25.65l-.72-.31s-.05-.03-.07-.04c-.15-.07-.29-.15-.43-.23l.57-.98.15-.05,10.28-3.38,1.53-.5,17.85-5.86h.03l.16-.06,20.49,9-11.07,3.63-18.62-8.68Z"/>
      </g>
      <path class="cls-1" d="M36.39,8.26c.03.87-.06,1.72-.28,2.52l-1.51.56c.39-.94.59-1.96.54-3.03-.16-4.05-3.58-7.21-7.62-7.05s-7.21,3.57-7.05,7.62c.01.38.07.75.13,1.13l.78-1.48,1.1.59-1.49,2.83c-.08.16-.24.28-.42.32-.04.01-.07.01-.11.01-.14,0-.28-.04-.41-.12l-2.73-2.08.76-1,1.25.95c-.06-.37-.11-.73-.12-1.1C19.04,4.18,22.74.19,27.47,0s8.73,3.52,8.91,8.25Z"/>
      <polygon class="cls-1" points="24.89 41.9 29.28 40.46 29.28 36.08 24.89 37.52 24.89 41.9"/>
    </g>
  </g>
</svg>