<?xml version="1.0" encoding="UTF-8"?>
<svg id="Layer_2" data-name="Layer 2" xmlns="http://www.w3.org/2000/svg" viewBox="0 0 67.8 52.38">
  <defs>
    <style>
      .cls-1 {
        fill: #f5bd9a;
        stroke: rgba(22, 19, 19, 0.92);
        stroke-width: 0.55;
        stroke-linejoin: round;
        stroke-linecap: round;
        paint-order: stroke fill;
      }

      .cls-2 {
        fill: rgba(72, 66, 66, 0.82);
        stroke: rgba(22, 19, 19, 0.92);
        stroke-width: 0.55;
        stroke-linejoin: round;
        stroke-linecap: round;
        paint-order: stroke fill;
      }

      .cls-3 {
        fill: #a6816b;
        stroke: rgba(22, 19, 19, 0.92);
        stroke-width: 0.55;
        stroke-linejoin: round;
        stroke-linecap: round;
        paint-order: stroke fill;
      }
    </style>
  </defs>
  <g id="Layer_1-2" data-name="Layer 1">
    <g>
      <path class="cls-2" d="M67.79,50.87c0,.19-.15.35-.35.35-.6,0-1.2.04-1.82.08-1.78.12-3.73.24-6.14-.47-1.48-.44-2.7.14-3.83.68-.62.3-1.22.58-1.86.71-2.96.6-4.7-.56-6.33-1.66-.93-.62-1.82-1.22-2.88-1.41-2.42-.43-3.94.34-5.44,1.09-1.29.65-2.57,1.29-4.38,1.25-1.25-.03-2.55-.82-3.92-1.66-2.6-1.59-5.5-3.36-8.5.15-1.98,2.32-6.79.94-10.85-.23-1.95-.56-3.71-1.07-4.82-1.07-.19,0-.35-.15-.35-.35s.15-.35.35-.35c1.2,0,3.01.52,5.01,1.1,3.86,1.11,8.44,2.43,10.14.44,3.38-3.96,6.55-2.02,9.38-.29,1.3.79,2.52,1.54,3.58,1.56,1.64.04,2.84-.57,4.06-1.18,1.6-.81,3.22-1.62,5.87-1.16,1.19.21,2.15.85,3.14,1.52,1.52,1.02,3.13,2.1,5.81,1.56.55-.11,1.12-.38,1.71-.66,1.25-.59,2.58-1.23,4.32-.71,2.29.68,4.17.56,5.9.45.64-.04,1.26-.08,1.86-.08.19,0,.35.15.35.35h-.01ZM26.9,29.11c.08-.08.13-.19.13-.31s-.05-.23-.13-.31c-.08-.08-.19-.13-.31-.13-.11,0-.22.04-.29.11v.02c-.09.08-.14.19-.14.31s.05.23.13.31c.08.08.19.13.31.13s.23-.05.31-.13h0ZM6.55,45.23c-.19,0-.35-.15-.35-.35s.15-.35.35-.35c1.2,0,3.01.52,5.01,1.1,1.59.46,3.3.95,4.88,1.23.01-.07,0-.15-.03-.21-1.08-2.19-1.95-3.92-2.73-5.45-.85-1.69-1.59-3.14-2.35-4.72-1.24-2.57-2.37-4.9-3.8-7.06-1.44-2.17-3.18-4.16-5.62-6.02h-.01c-1.2-.83-1.79-1.61-1.88-2.3-.06-.45.12-.87.49-1.23.42-.4,1.07-.73,1.92-.97,2.05-.57,5.16-.57,8.84.37.01,0,.03,0,.04.01v-4.42s.01-.07.02-.1c0-.03-.02-.06-.02-.09V4.13c0-.2.15-.38.35-.41l6.81-1.06s.02,0,.03,0c.02,0,.04,0,.06,0,.05,0,.09.01.13.03.01,0,.02,0,.03.01l25.18,13.91,6.56,3.62.02-5.96,1.62-.09s0,0,0-.01V.35c0-.19.15-.35.35-.35s.35.15.35.35v.08c2.37.51,3.17,1.5,4.11,2.69.76.96,1.62,2.05,3.44,3.13v4.48c-2.7-.07-3.58-1.25-4.43-2.39-.72-.97-1.43-1.89-3.13-2.14v7.95l1.34-.08.03,10.73h.69l-.03-10.46,1.48.98v10.18s1.32,1,1.32,1c.1.08.17.2.17.33v12.71c1.97.64,3.97,1.22,6.04,1.75-.03.9-.19,2.26-.5,3.52-.23.94-.53,1.83-.91,2.41,1.08.07,2.07,0,3.02-.05.64-.04,1.26-.08,1.86-.08.19,0,.35.15.35.35s-.15.35-.35.35c-.6,0-1.2.04-1.82.08-1.78.12-3.73.24-6.14-.47-1.48-.44-2.7.14-3.83.68-.62.3-1.22.58-1.86.71-2.96.6-4.7-.56-6.33-1.66-.93-.62-1.82-1.22-2.88-1.41-2.42-.43-3.94.34-5.44,1.09-1.29.65-2.57,1.29-4.38,1.25-1.25-.03-2.55-.82-3.92-1.66-2.6-1.59-5.5-3.36-8.5.15-1.98,2.32-6.79.94-10.85-.23-1.95-.56-3.71-1.07-4.82-1.07v-.02ZM22.39,20.71l.58-.4c.09-.06.21-.04.28.04l.56.72v-3.88l-1.42-.79v4.31ZM30.78,25.15l.58-.4c.09-.06.21-.04.28.04l.56.72v-3.88l-1.42-.79v4.31ZM39.18,29.79l.58-.4c.09-.06.21-.04.28.04l.56.72v-3.88l-1.42-.79v4.31ZM54.8,25.62h-2.28v12.01c.71.28,1.42.55,2.12.81l.16-12.82h0ZM47.58,34.42l.58-.4c.09-.06.21-.04.28.04l.56.72v-3.88l-1.42-.79v4.31ZM24.4,44.05c.53-.2,1.05-.29,1.57-.29-.51,0-1.04.09-1.57.29ZM23.38,44.57c.17-.11.33-.2.5-.29-.16.08-.33.18-.5.29ZM18.09,47.08c.24.02.48.02.71.02-.23,0-.47,0-.71-.02ZM19.46,47.07c-.16.02-.32.02-.49.03.17,0,.33-.01.49-.03ZM21.3,46.44c.14-.11.27-.22.39-.36-.12.14-.25.25-.39.36ZM20.83,46.72c.11-.05.22-.12.32-.18-.1.07-.21.13-.32.18ZM20.3,46.91c.12-.03.23-.07.34-.12-.11.04-.22.08-.34.12ZM19.68,47.04c.13-.02.27-.04.39-.07-.13.03-.26.05-.39.07ZM34.66,47.36c-1.06-.03-2.28-.77-3.58-1.56-.89-.54-1.8-1.1-2.75-1.5-.76-.32-1.53-.53-2.33-.53.79,0,1.57.22,2.33.53.95.39,1.86.96,2.75,1.5,1.3.79,2.52,1.54,3.58,1.56ZM43.63,44.91c-.3-.02-.59-.02-.86-.01.27-.01.56-.01.86.01ZM50.92,48.11c-1.26-.27-2.24-.94-3.2-1.57-.25-.17-.49-.33-.74-.49-.74-.47-1.5-.87-2.4-1.03.9.16,1.66.56,2.4,1.03.25.16.49.32.74.49.95.64,1.94,1.3,3.2,1.57ZM52.58,48.22c-.3.02-.59.02-.87,0,.28.02.56.02.87,0ZM59.56,46.71c-.43-.13-.85-.19-1.23-.19.39,0,.8.06,1.23.19ZM61.88,47.17c.1.01.2.02.3.03-.1,0-.2-.02-.3-.03ZM61.13,47.07c.1.02.2.03.3.04-.1-.01-.2-.03-.3-.04ZM60.36,46.92c.09.02.18.03.26.05-.09-.02-.17-.03-.26-.05ZM56.99,27.03l-1.35-1.01-.16,12.72c.5.18,1,.34,1.5.51v-12.22s.01,0,.01,0ZM51.73,20.92l.21.12s-.03-.04-.06-.04l-.15-.07h0ZM12.13,4.47v9.9l5.99-.94s0-.02,0-.03V3.54l-5.98.93h0ZM18.03,21.75s.02.01.04.01c.01,0,.03.01.04.02v-7.5l-5.98.93v4.2s-.01.07-.02.1c1.22.35,2.49.8,3.79,1.36.68.29,1.39.59,2.13.89h0ZM16.55,46.89c.18.03.35.06.53.08-.17-.03-.35-.05-.53-.08ZM17.34,47.01c.21.03.41.05.62.06-.2-.02-.41-.04-.62-.06Z"/>
      <path class="cls-3" d="M21.97,21.11v-4.93l-3.03-1.67v7.61c2.12.83,4.39,1.64,6.61,2.39.3.1.59.2.91.3h.03s0,.01.01.01v-6.13l-2.28-1.26v4.26c0,.09-.06.17-.14.2-.02,0-.04.01-.07.01-.06,0-.12-.03-.16-.08l-.81-1.04-.74.51c-.06.04-.15.05-.21.01-.07-.04-.11-.11-.11-.18h0Z"/>
      <path class="cls-3" d="M30.37,25.55v-4.93l-3.03-1.67v6.14c2.88.94,5.55,1.73,7.57,2.25v-4.22l-2.28-1.26v4.26c0,.09-.06.17-.14.2-.02,0-.04.01-.07.01-.06,0-.12-.03-.16-.08l-.81-1.04-.74.51c-.06.04-.15.05-.21.01s-.11-.11-.11-.18h0Z"/>
      <path class="cls-3" d="M38.77,30.18v-4.93l-3.03-1.67v3.97s.03,0,.04.01l1.57,2.78c.04.06.09.11.15.14,1.99,1.08,3.89,2.06,5.76,2.99l.06.03v-5.75l-2.28-1.26v4.26c0,.09-.06.17-.14.2-.02,0-.04.01-.07.01-.06,0-.12-.03-.16-.08l-.81-1.04-.74.51c-.06.04-.15.05-.21.01s-.11-.11-.11-.18h0Z"/>
      <path class="cls-3" d="M47.57,23.88l.58-.4c.09-.06.21-.04.28.04l.56.72v-3.88l-1.42-.79v4.31Z"/>
      <path class="cls-3" d="M44.13,33.91c2.48,1.21,4.85,2.28,7.16,3.23.11.04.21.09.31.13.02.01.04.02.06.03.01,0,.02,0,.03.01v-4.91l-2.28-1.26v4.26c0,.09-.06.17-.14.2-.02,0-.04.01-.07.01-.06,0-.12-.03-.16-.08l-.81-1.04-.74.51c-.06.04-.15.05-.21.01-.07-.04-.11-.11-.11-.18v-4.93l-3.03-1.67v5.7Z"/>
      <path class="cls-3" d="M39.18,19.24l.58-.4c.09-.06.21-.04.28.04l.56.72v-3.88l-1.42-.79v4.31Z"/>
      <path class="cls-3" d="M30.79,14.6l.58-.4c.09-.06.21-.04.28.04l.56.72v-3.88l-1.42-.79v4.31Z"/>
      <path class="cls-1" d="M18.94,13.41s-.01.09-.03.13l7.59,4.19V7.94l-2.28-1.26v4.45c0,.09-.06.17-.14.2-.02,0-.04.01-.07.01-.06,0-.12-.03-.16-.08l-.81-1.04-.74.51c-.06.04-.15.05-.21.01-.07-.04-.11-.11-.11-.18v-5.12l-3.03-1.67v9.65h0Z"/>
      <path class="cls-1" d="M47.16,24.28v-4.93l-3.03-1.67v9.6l7.57,4.18v-9.6l-2.28-1.26v4.26c0,.09-.06.17-.14.2-.02,0-.04.01-.07.01-.06,0-.12-.03-.16-.08l-.81-1.04-.74.51c-.06.04-.15.05-.21.01s-.11-.11-.11-.18h0Z"/>
      <path class="cls-1" d="M43.3,17.21l-2.28-1.26v4.26c0,.09-.06.17-.14.2-.02,0-.04.01-.07.01-.06,0-.12-.03-.16-.08l-.81-1.04-.74.51c-.06.04-.15.05-.21.01-.07-.04-.11-.11-.11-.18v-4.93l-3.03-1.67v9.6l7.57,4.18v-9.6h0Z"/>
      <path class="cls-1" d="M34.9,12.57l-2.28-1.26v4.26c0,.09-.06.17-.14.2-.02,0-.04.01-.07.01-.06,0-.12-.03-.16-.08l-.81-1.04-.74.51c-.06.04-.15.05-.21.01-.07-.04-.11-.11-.11-.18v-4.93l-3.03-1.67v9.6l7.57,4.18v-9.6h0Z"/>
      <path class="cls-3" d="M22.39,10.16l.58-.4c.09-.06.21-.04.28.04l.56.72v-4.08l-1.42-.79v4.5Z"/>
      <path class="cls-1" d="M56.91,3.11c-.93-1.19-1.73-2.17-4.1-2.68v5.76c1.69.25,2.4,1.17,3.12,2.14.85,1.14,1.73,2.32,4.43,2.39v-4.48c-1.83-1.08-2.69-2.17-3.45-3.13Z"/>
    </g>
  </g>
</svg>